<svg width="16" height="16" viewBox="0 0 16 16" fill="none" xmlns="http://www.w3.org/2000/svg">
<path d="M12.0235 9.23886L12.0235 13.9993" stroke="#FE582A" stroke-width="1.3" stroke-linecap="round" stroke-linejoin="round"/>
<path fill-rule="evenodd" clip-rule="evenodd" d="M12.0235 1.99994C13.1151 1.99994 14.0001 2.84845 14.0001 3.89515C14.0001 4.94185 13.1151 5.79036 12.0235 5.79036C10.931 5.79036 10.0469 4.94185 10.0469 3.89515C10.0469 2.84845 10.931 1.99994 12.0235 1.99994Z" stroke="#FE582A" stroke-width="1.3" stroke-linecap="round" stroke-linejoin="round"/>
<path d="M3.9766 6.76107L3.9766 1.99981" stroke="#FE582A" stroke-width="1.3" stroke-linecap="round" stroke-linejoin="round"/>
<path fill-rule="evenodd" clip-rule="evenodd" d="M3.97661 14C5.06908 14 5.95323 13.1515 5.95323 12.1048C5.95323 11.0581 5.06908 10.2096 3.97661 10.2096C2.88495 10.2096 2 11.0581 2 12.1048C2 13.1515 2.88495 14 3.97661 14Z" stroke="#FE582A" stroke-width="1.3" stroke-linecap="round" stroke-linejoin="round"/>
</svg>
