<svg width="22" height="22" viewBox="0 0 22 22" fill="none" xmlns="http://www.w3.org/2000/svg">
<path fill-rule="evenodd" clip-rule="evenodd" d="M9.375 6.5625C9.89277 6.5625 10.3125 6.14277 10.3125 5.625C10.3125 5.10723 9.89277 4.6875 9.375 4.6875H3.75C3.23223 4.6875 2.8125 5.10723 2.8125 5.625C2.8125 6.14277 3.23223 6.5625 3.75 6.5625L9.375 6.5625ZM19.6875 11.25C19.6875 11.7678 19.2678 12.1875 18.75 12.1875H3.75C3.23223 12.1875 2.8125 11.7678 2.8125 11.25C2.8125 10.7322 3.23223 10.3125 3.75 10.3125H18.75C19.2678 10.3125 19.6875 10.7322 19.6875 11.25ZM14.0625 16.875C14.0625 17.3928 13.6428 17.8125 13.125 17.8125H3.75C3.23223 17.8125 2.8125 17.3928 2.8125 16.875C2.8125 16.3572 3.23223 15.9375 3.75 15.9375H13.125C13.6428 15.9375 14.0625 16.3572 14.0625 16.875Z" fill="#071731"/>
</svg>
