<svg width="16" height="16" viewBox="0 0 16 16" fill="none" xmlns="http://www.w3.org/2000/svg">
<path d="M8.47998 7.19998C8.15998 7.11998 7.83998 6.95998 7.59998 6.71998C7.35998 6.63998 7.27998 6.39998 7.27998 6.23998C7.27998 6.07998 7.35998 5.83998 7.51998 5.75998C7.75998 5.59998 7.99998 5.43998 8.23998 5.51998C8.71998 5.51998 9.11998 5.75998 9.35998 6.07998L10.08 5.11998C9.83998 4.87998 9.59998 4.71998 9.35998 4.55998C9.11998 4.39998 8.79998 4.31998 8.47998 4.31998V3.19998H7.51998V4.31998C7.11998 4.39998 6.71998 4.63998 6.39998 4.95998C6.07998 5.35998 5.83998 5.83998 5.91998 6.31998C5.91998 6.79998 6.07998 7.27998 6.39998 7.59998C6.79998 7.99998 7.35998 8.23998 7.83998 8.47998C8.07998 8.55998 8.39998 8.71998 8.63998 8.87998C8.79998 9.03998 8.87998 9.27998 8.87998 9.51998C8.87998 9.75998 8.79998 9.99998 8.63998 10.24C8.39998 10.48 8.07998 10.56 7.83998 10.56C7.51998 10.56 7.11998 10.48 6.87998 10.24C6.63998 10.08 6.39998 9.83998 6.23998 9.59998L5.43998 10.48C5.67998 10.8 5.91998 11.04 6.23998 11.28C6.63998 11.52 7.11998 11.76 7.59998 11.76V12.8H8.47998V11.6C8.95998 11.52 9.35998 11.28 9.67998 10.96C10.08 10.56 10.32 9.91998 10.32 9.35998C10.32 8.87998 10.16 8.31998 9.75998 7.99998C9.35998 7.59998 8.95998 7.35998 8.47998 7.19998ZM7.99998 1.59998C4.47998 1.59998 1.59998 4.47998 1.59998 7.99998C1.59998 11.52 4.47998 14.4 7.99998 14.4C11.52 14.4 14.4 11.52 14.4 7.99998C14.4 4.47998 11.52 1.59998 7.99998 1.59998ZM7.99998 13.52C4.95998 13.52 2.47998 11.04 2.47998 7.99998C2.47998 4.95998 4.95998 2.47998 7.99998 2.47998C11.04 2.47998 13.52 4.95998 13.52 7.99998C13.52 11.04 11.04 13.52 7.99998 13.52Z" fill="#FF74C4"/>
</svg>
