<svg width="24" height="24" viewBox="0 0 24 24" fill="none" xmlns="http://www.w3.org/2000/svg">
<path fill-rule="evenodd" clip-rule="evenodd" d="M14.9857 2H9.01434C5.90915 2 4 3.49929 4 6.43434V20.3309C4.00448 20.613 4.07042 20.8782 4.19263 21.1174L4.28627 21.2719L4.38431 21.3975C4.89545 21.9969 5.7112 22.1624 6.38442 21.8037L11.974 18.6635L17.5863 21.7971C17.8368 21.9291 18.0965 21.9957 18.3608 22C18.8038 22.0001 19.2179 21.8242 19.5232 21.5112C19.8285 21.1982 20 20.7736 20 20.3309V6.25765C20 3.43503 18.0482 2 14.9857 2ZM9.01472 3.44727H14.986C17.3504 3.44727 18.5883 4.3574 18.5883 6.25717V20.3305C18.5883 20.3892 18.5656 20.4455 18.5251 20.487C18.4846 20.5285 18.4297 20.5519 18.3724 20.5519C18.3359 20.5512 18.2891 20.5392 18.2466 20.5169L12.6439 17.3889C12.2254 17.1571 11.7237 17.1571 11.3072 17.3878L5.72 20.526C5.63524 20.571 5.51411 20.5416 5.44957 20.4514L5.41211 20.3892C5.41933 20.3995 5.41802 20.3871 5.41578 20.3657C5.41438 20.3523 5.41261 20.3354 5.41234 20.3184L5.41243 6.43386C5.41243 4.39531 6.61964 3.44727 9.01472 3.44727ZM16.1135 9.04028C16.1135 8.6405 15.7974 8.31641 15.4075 8.31641H8.54001L8.44421 8.32301C8.09959 8.37095 7.83398 8.67381 7.83398 9.04028C7.83398 9.44006 8.15008 9.76415 8.54001 9.76415H15.4075L15.5033 9.75754C15.8479 9.70961 16.1135 9.40675 16.1135 9.04028Z" fill="#8C8994"/>
</svg>
