<svg width="16" height="16" viewBox="0 0 16 16" fill="none" xmlns="http://www.w3.org/2000/svg">
<path d="M6.66671 2.66665C6.66671 2.31302 6.80718 1.97389 7.05723 1.72384C7.30728 1.47379 7.64642 1.33331 8.00004 1.33331C8.35366 1.33331 8.6928 1.47379 8.94285 1.72384C9.1929 1.97389 9.33337 2.31302 9.33337 2.66665V3.49331C10.5245 3.78975 11.582 4.47657 12.3372 5.4442C13.0924 6.41184 13.5018 7.60452 13.5 8.83198C13.5 8.96459 13.4474 9.09176 13.3536 9.18553C13.2598 9.2793 13.1326 9.33198 13 9.33198H3.00004C2.86743 9.33198 2.74026 9.2793 2.64649 9.18553C2.55272 9.09176 2.50004 8.96459 2.50004 8.83198C2.50004 6.25865 4.27871 4.09998 6.66671 3.49931V2.66665ZM8.83337 4.99998C8.70077 4.99998 8.57359 5.05266 8.47982 5.14643C8.38605 5.24019 8.33337 5.36737 8.33337 5.49998C8.33337 5.63259 8.38605 5.75976 8.47982 5.85353C8.57359 5.9473 8.70077 5.99998 8.83337 5.99998C9.66871 5.99998 10.262 6.41198 10.7574 7.11998C10.795 7.17378 10.8429 7.21963 10.8983 7.25493C10.9536 7.29023 11.0154 7.31427 11.0801 7.32569C11.1447 7.33712 11.211 7.33569 11.2751 7.3215C11.3392 7.30731 11.3999 7.28062 11.4537 7.24298C11.5075 7.20533 11.5534 7.15746 11.5887 7.10209C11.624 7.04672 11.648 6.98495 11.6594 6.92029C11.6708 6.85563 11.6694 6.78935 11.6552 6.72524C11.641 6.66113 11.6144 6.60044 11.5767 6.54665C10.9567 5.65998 10.0907 4.99998 8.83337 4.99998ZM1.33337 11.3333C1.33337 10.9797 1.47385 10.6406 1.7239 10.3905C1.97395 10.1405 2.31309 9.99998 2.66671 9.99998H13.3334C13.687 9.99998 14.0261 10.1405 14.2762 10.3905C14.5262 10.6406 14.6667 10.9797 14.6667 11.3333C14.6667 11.6869 14.5262 12.0261 14.2762 12.2761C14.0261 12.5262 13.687 12.6666 13.3334 12.6666H2.66671C2.31309 12.6666 1.97395 12.5262 1.7239 12.2761C1.47385 12.0261 1.33337 11.6869 1.33337 11.3333Z" fill="#FFA412"/>
</svg>
