<svg width="24" height="24" viewBox="0 0 24 24" fill="none" xmlns="http://www.w3.org/2000/svg">
<path fill-rule="evenodd" clip-rule="evenodd" d="M7.85061 21.9997H16.1585C19.2102 21.9997 21.5513 20.8473 20.8863 16.2093L20.112 9.9236C19.7021 7.60934 18.2901 6.72363 17.0512 6.72363H6.92144C5.66432 6.72363 4.33433 7.676 3.86063 9.9236L3.08632 16.2093C2.52153 20.3235 4.79891 21.9997 7.85061 21.9997Z" stroke="#8C8994" stroke-width="1.5" stroke-linecap="round" stroke-linejoin="round"/>
<path d="M7.71441 6.49524C7.71441 4.01261 9.63945 2.00004 12.0141 2.00004V2.00004C13.1576 1.99497 14.2559 2.46634 15.0662 3.3099C15.8765 4.15346 16.332 5.29973 16.332 6.49524V6.49524" stroke="#8C8994" stroke-width="1.5" stroke-linecap="round" stroke-linejoin="round"/>
<path d="M9.06179 11.1813H9.10734" stroke="#8C8994" stroke-width="1.5" stroke-linecap="round" stroke-linejoin="round"/>
<path d="M14.8645 11.1813H14.9101" stroke="#8C8994" stroke-width="1.5" stroke-linecap="round" stroke-linejoin="round"/>
</svg>
